# xmcd
#
# Track frame offsets: 
#        150
#        19345
#        31492
#        44602
#        66400
#        89377
#        112385
#        131832
#        151497
#        168475
#        189150
#        201505
#
# Disc length: 2931 seconds
#
# Revision: 3
# Processed by: cddbd v1.5.2PL0 Copyright (c) Steve Scherf et al.
# Submitted via: ExactAudioCopy v0.99pb5
#
DISCID=b60b710c
DTITLE=Debbie Davies - Round Every Corner
DYEAR=1998
DGENRE=Blues
TTITLE0=Sittin' and Cryin'
TTITLE1=Homework
TTITLE2=Who'll Stop The Rain
TTITLE3=Time Work Your Magic
TTITLE4=Scratches
TTITLE5=Blue and Lonesome
TTITLE6=Such A Fine Man
TTITLE7='Round Every Corner
TTITLE8=Little Sister
TTITLE9=Room With A View
TTITLE10=A.C. Strat
TTITLE11=Backseat Driver
EXTD=
EXTT0=
EXTT1=
EXTT2=
EXTT3=
EXTT4=
EXTT5=
EXTT6=
EXTT7=
EXTT8=
EXTT9=
EXTT10=
EXTT11=
PLAYORDER=
